<svg height="120" viewBox="0 0 120 120" width="120" xmlns="http://www.w3.org/2000/svg" xmlns:xlink="http://www.w3.org/1999/xlink"><defs><circle id="a" cx="40" cy="40" r="40"/><filter id="b" height="187.5%" width="187.5%" x="-43.8%" y="-31.2%"><feOffset dx="0" dy="10" in="SourceAlpha" result="shadowOffsetOuter1"/><feGaussianBlur in="shadowOffsetOuter1" result="shadowBlurOuter1" stdDeviation="10"/><feColorMatrix in="shadowBlurOuter1" type="matrix" values="0 0 0 0 0   0 0 0 0 0   0 0 0 0 0  0 0 0 0.153702446 0"/></filter></defs><g fill="none" fill-rule="evenodd" transform="matrix(-1 0 0 1 100 10)"><use fill="#000" filter="url(#b)" xlink:href="#a"/><use fill="#fff" fill-rule="evenodd" xlink:href="#a"/><path d="m29.4913105 39 16.8819248 16.8819248c.7133028.7133029.7133028 1.8697953 0 2.5830981s-1.8697952.7133028-2.583098 0l-18.0816863-18.0816863c-.3800032-.3800032-.5575644-.8857877-.5326837-1.3833366-.0248807-.4975489.1526805-1.0033334.5326837-1.3833366l18.0816863-18.0816863c.7133028-.7133028 1.8697952-.7133028 2.583098 0s.7133028 1.8697952 0 2.5830981z" fill="#d9e4eb" transform="matrix(1 0 0 -1 0 78)"/></g></svg>